<svg xmlns="http://www.w3.org/2000/svg" width="152.146" height="128.383" viewBox="0 0 152.146 128.383"><path fill="#1E3D87" d="M1.479 1.333h6.857v29.62h8.611l-.612 5.993H1.479zm25.032 27.138l-.877 8.477H18.65l5.036-35.614h10.212l5.156 35.614h-7.125l-.981-8.477h-4.437zm3.856-6.041a1370.825 1370.825 0 0 1-1.55-14.897h-.269c-.123 2.482-.969 10.495-1.44 14.897h3.259zM46.564 1.333v27.12c0 2.077.631 3.188 2.194 3.188 1.653 0 2.162-1.264 2.162-3.188V1.333h6.934V28.01c0 6.312-2.9 9.432-9.203 9.432-6.19 0-8.983-3.017-8.983-9.489V1.333h6.896zm14.202 0h8.42c7.337 0 9.869 3.345 9.869 10.718v13.388c0 6.137-1.297 11.509-9.403 11.509h-8.886V1.333zm6.858 30.094h1.336c2.685 0 3.13-1.751 3.13-4.529v-15.95c0-2.628-.59-4.06-3.183-4.06h-1.283v24.539zm28.308-10.21H88.59v9.708h8.607l-.822 6.021H81.73V1.333h14.592V7.39H88.59v7.806h7.342zm-78.29 95.54v1.93c0 4.492-.828 10.229-8.992 10.229-6.03 0-8.65-3.212-8.65-9.76v-17.462c0-6.194 3.09-9.459 8.794-9.459 7.522 0 8.744 4.952 8.744 9.612v2.234h-6.896v-3.038c0-1.96-.418-2.952-1.848-2.952-1.41 0-1.866.937-1.866 2.952v18.834c0 1.9.317 3.198 1.864 3.198 1.48 0 1.919-1.09 1.919-3.359v-2.959h6.931zm3.05-23.989h6.858v13.708h4.467V92.768h6.895v35.614h-6.895v-15.866H27.55v15.866h-6.858zm28.651 27.137l-.877 8.478h-6.984l5.036-35.615h10.213l5.156 35.615h-7.126l-.981-8.478h-4.437zm3.856-6.041a1396.373 1396.373 0 0 1-1.55-14.897h-.269c-.123 2.481-.968 10.495-1.44 14.897h3.259zm29.67 3.17c0-5.511.053-13.328.142-17.696h-.185c-.745 7.126-2.318 21.552-3.291 29.045h-5.81c-.786-7.787-2.322-22.478-3.066-29.136h-.22c.088 4.182.267 11.903.267 18.041v11.095h-6.215V92.768h9.831c.928 6.772 1.971 15.663 2.375 20.486h.147c.55-5.156 1.732-12.639 2.826-20.486h9.792v35.615h-6.594v-11.349zm10.777-24.265h9.131c5.914 0 8.847 3.128 8.847 9.436v2.176c0 6.236-2.354 10.002-9.11 10.002h-2.01v14h-6.857V92.769zm6.858 16.062h1.109c2.6 0 3.15-1.455 3.15-4.422v-2.458c0-2.302-.541-3.786-2.822-3.786h-1.438v10.666zm27.795 3.82h-7.343v9.709h8.608l-.823 6.022h-14.643V92.768h14.59v6.057h-7.732v7.805h7.343zm8.834 15.731v-11.403c0-.575-.09-1.216-.251-1.845l-6.259-22.365h7.461c.959 5.135 2.08 11.035 2.52 15.522h.223c.578-4.26 1.719-10.291 2.646-15.522h7.063l-6.399 22.937c-.091.437-.163.79-.163 1.535v11.142h-6.841zM15.679 66.873H8.337v9.71h8.608l-.823 6.02H1.478V46.99h14.591v6.057H8.337v7.805h7.342zm8.925 4.753v2.467c0 2.343.582 3.431 2.144 3.431 1.578 0 1.949-1.613 1.949-3.293 0-3.361-.632-4.335-4.269-7.376-4.011-3.4-6.074-5.412-6.074-10.658 0-5.087 1.685-9.774 8.431-9.774 7.163 0 8.22 4.886 8.22 8.961v2.049h-6.467V55.3c0-2.16-.355-3.229-1.709-3.229-1.265 0-1.673 1.087-1.673 3.103 0 2.145.39 3.205 3.336 5.502 5.237 4.116 7.116 6.427 7.116 12.292 0 5.574-1.905 10.17-8.98 10.17-6.794 0-8.732-4.099-8.732-9.377v-2.135h6.708zM65.825 46.99v27.119c0 2.078.631 3.188 2.194 3.188 1.653 0 2.162-1.264 2.162-3.188V46.99h6.934v26.677c0 6.313-2.9 9.433-9.203 9.433-6.19 0-8.983-3.017-8.983-9.49V46.99h6.896zm15.327 0h6.84v35.612h-6.84zm25.124 19.883h-7.341v9.71h8.606l-.821 6.02H92.076V46.99h14.59v6.057h-7.731v7.805h7.341zm10.262.248v15.481h-6.839V46.991h8.886c5.969 0 8.918 2.622 8.918 8.848v1.281c0 5.076-2.026 6.584-3.554 7.306 2.216 1.07 3.256 2.698 3.256 7.668 0 3.439-.053 8.638.244 10.509h-6.625c-.443-1.608-.411-6.244-.411-10.791 0-4.008-.459-4.69-3.067-4.69h-.808zm.019-5.397h.848c2.289 0 3.222-.722 3.222-4.037v-1.721c0-2.389-.479-3.579-3-3.579h-1.069v9.337zM53.766 78.992l3.127 8.665-10.685-4.519z"/><path fill="#1E3D87" d="M55.76 56.519V73.04c0 7.065-3.326 10.098-9.551 10.098-5.909 0-8.947-3.106-8.947-10.028V56.333c0-6.875 3.78-9.877 9.264-9.877 5.518.001 9.234 2.951 9.234 10.063m-11.57-.772v18.202c0 2.2.754 3.349 2.285 3.349 1.597 0 2.319-1.041 2.319-3.381V55.693c0-2.224-.615-3.362-2.338-3.362-1.458.001-2.266 1.054-2.266 3.416"/></svg>